PathFileType	4	(X/Y/Z)	E:\Qualisys_Data\Carbon_Farble_Plate\Data\Amateur_Runner\S14\T3\S14T3V12_c3d.trc
DataRate	CameraRate	NumFrames	NumMarkers	Units	OrigDataRate	OrigDataStartFrame	OrigNumFrames
200.000000	200.000000	5	39	mm	200.000000	40	327
Frame#	Time	LSHO			RSHO			LICST			RICST			LASIS			LHEEL			RASIS			LTROC			RTROC			SACR			LTH1			LSK4			LTH2			LTH3			RHM5			LSK2			LTH4			RTH1			LTOE			RTH2			RTH3			RTH4			LLEP			RLEP			LSK1			LSK3			RSK1			LHM5			RSK2			LFT1			RSK3			RSK4			LLME			RLME			RTOE			RHEEL			RFT1			RFT2			LFT2			
		X1	Y1	Z1	X2	Y2	Z2	X3	Y3	Z3	X4	Y4	Z4	X5	Y5	Z5	X6	Y6	Z6	X7	Y7	Z7	X8	Y8	Z8	X9	Y9	Z9	X10	Y10	Z10	X11	Y11	Z11	X12	Y12	Z12	X13	Y13	Z13	X14	Y14	Z14	X15	Y15	Z15	X16	Y16	Z16	X17	Y17	Z17	X18	Y18	Z18	X19	Y19	Z19	X20	Y20	Z20	X21	Y21	Z21	X22	Y22	Z22	X23	Y23	Z23	X24	Y24	Z24	X25	Y25	Z25	X26	Y26	Z26	X27	Y27	Z27	X28	Y28	Z28	X29	Y29	Z29	X30	Y30	Z30	X31	Y31	Z31	X32	Y32	Z32	X33	Y33	Z33	X34	Y34	Z34	X35	Y35	Z35	X36	Y36	Z36	X37	Y37	Z37	X38	Y38	Z38	X39	Y39	Z39	

41	0.2	-2078.515380859375	1391.43896484375	-470.0700073242188	-2038.46484375	1379.138916015625	-164.9335174560547	-2137.715087890625	945.5032958984376	-455.2649230957031	-2106.43017578125	955.0844116210938	-174.5916748046875	-2092.39501953125	897.253662109375	-431.9703674316406	-2378.563232421875	358.0952453613281	-360.5201416015625	-2078.2861328125	916.3900756835938	-195.6626586914062	-2215.457275390625	821.7322387695312	-469.5368957519531	-2221.9423828125	841.4465942382812	-139.9620819091797	-2260.78515625	953.6709594726562	-317.2758178710938	-2046.717651367188	641.7848510742188	-487.7667236328125	-2191.197998046875	433.3069763183594	-443.2248840332031	-2110.322265625	605.0067749023438	-458.01904296875	-1987.32177734375	562.0911865234375	-472.0031433105469	-2261.781494140625	80.98655700683594	-180.8199157714844	-2105.544677734375	478.7129516601562	-465.7321472167969	-2054.642822265625	522.427001953125	-448.0171203613281	-2078.91455078125	619.4384155273438	-147.9776458740234	-2249.576416015625	128.43408203125	-383.3882141113281	-2157.036376953125	619.8981323242188	-143.1584014892578	-2075.43505859375	524.1494140625	-180.0552520751953	-2158.849609375	521.3687744140625	-167.7042236328125	-2018.045043945312	491.2174377441406	-470.6324462890625	-2134.265869140625	452.869384765625	-178.802001953125	-2064.219970703125	407.8321228027344	-456.6143493652344	-2153.6591796875	362.6215209960938	-437.0904541015625	-2168.496337890625	333.1165466308594	-182.2040252685547	-2296.476806640625	182.578857421875	-445.0299377441406	-2241.0458984375	378.7686767578125	-173.8160858154297	-2398.118408203125	331.8948059082031	-334.4581909179688	-2231.337158203125	252.2687072753906	-202.6640777587891	-2293.459228515625	299.2875061035156	-189.4519958496094	-2321.487548828125	322.3329772949219	-417.9213562011719	-2372.749755859375	148.6504516601562	-217.6863555908203	-2188.9541015625	80.0052719116211	-249.536376953125	-2440.767822265625	125.6481170654297	-274.1215209960938	-2433.921630859375	93.20856475830078	-298.9779357910156	-2448.044677734375	105.6130142211914	-248.5144195556641	-2401.20703125	341.9356079101562	-389.3915100097656
42	0.205	-2065.8740234375	1394.903442382812	-470.8619079589844	-2021.4052734375	1382.71728515625	-166.7209167480469	-2122.496826171875	949.1749267578124	-454.986328125	-2091.302001953125	957.2747192382812	-174.7513885498047	-2078.337890625	900.35498046875	-432.6956176757812	-2353.158447265625	348.6775512695312	-360.079345703125	-2063.8779296875	917.8522338867188	-195.3458404541016	-2199.517822265625	825.8663940429688	-470.9206237792969	-2207.04150390625	844.3034057617188	-139.7919158935547	-2246.999755859375	957.2127685546876	-318.3949890136719	-2028.37646484375	647.0350341796875	-487.8851013183594	-2169.2099609375	432.6678161621094	-443.0487365722656	-2090.79833984375	608.7871704101562	-458.1557006835938	-1967.8525390625	568.2190551757812	-470.9994506835938	-2261.470947265625	81.2053451538086	-180.9465179443359	-2084.990966796875	480.7259826660156	-465.425537109375	-2035.5078125	528.2711181640625	-448.4500122070312	-2071.730712890625	620.1171264648438	-147.6605072021484	-2216.8203125	126.3015670776367	-384.5828552246094	-2148.431396484375	622.2261962890625	-144.4631042480469	-2069.3193359375	524.4199829101562	-180.7554016113281	-2153.08349609375	524.113525390625	-168.6766815185547	-1997.316284179688	495.9124450683594	-469.8580627441406	-2129.95751953125	454.5636596679688	-179.713623046875	-2041.832763671875	411.1301879882812	-456.1161804199219	-2129.075927734375	362.358642578125	-436.4683227539062	-2165.5751953125	335.6041870117188	-182.7689208984375	-2265.232177734375	179.0277557373047	-445.8277282714844	-2237.2978515625	381.5115356445312	-174.7765808105469	-2372.81884765625	322.8400573730469	-335.4499206542969	-2229.677978515625	255.1117248535156	-202.7483215332031	-2290.82421875	302.5656127929688	-189.441162109375	-2295.7587890625	316.7605285644531	-417.9961853027344	-2370.894287109375	151.7573852539062	-217.7252349853516	-2188.605712890625	78.56028747558594	-249.3894653320312	-2439.295654296875	129.5660400390625	-273.7410583496094	-2432.600830078125	96.66936492919922	-298.9891662597656	-2447.0068359375	110.2241592407227	-248.9790191650391	-2377.58740234375	333.1129150390625	-390.0439758300781
43	0.21	-2053.130126953125	1397.988647460938	-471.6623229980469	-2004.33056640625	1386.022705078125	-168.9865570068359	-2106.95458984375	952.2957153320312	-455.2492065429688	-2076.97265625	959.1519165039062	-174.0109710693359	-2063.00634765625	903.5731811523438	-431.6820983886719	-2329.477294921875	341.3200073242188	-360.8636474609375	-2049.838623046875	920.6648559570312	-195.7763366699219	-2182.968017578125	830.024169921875	-472.5570373535156	-2193.696533203125	847.4563598632812	-140.3395233154297	-2231.1201171875	960.2239379882812	-318.4922180175781	-2009.4384765625	652.4158325195312	-487.2546081542969	-2147.60986328125	431.7925109863281	-443.4739990234375	-2072.0185546875	612.7496337890625	-459.0740661621094	-1948.424926757812	573.9287719726562	-470.1226806640625	-2261.044189453125	81.40245056152344	-180.9956665039062	-2064.028076171875	481.8283996582031	-465.3392028808594	-2015.65771484375	533.2477416992188	-448.1907653808594	-2062.174072265625	621.7021484375	-148.7601165771484	-2183.653076171875	124.1296005249023	-385.0915832519531	-2139.838623046875	624.6836547851562	-145.2455596923828	-2063.1181640625	524.8758544921875	-181.73486328125	-2146.560546875	526.69287109375	-169.2763519287109	-1976.127685546875	499.9961547851562	-468.5785217285156	-2125.0546875	455.9104614257812	-180.3337860107422	-2019.040893554688	414.3007507324219	-455.4928283691406	-2104.162109375	361.9011535644531	-436.6113586425781	-2161.670166015625	337.4888000488281	-183.2001800537109	-2232.84033203125	174.2464141845703	-446.2378540039062	-2233.239501953125	384.1609802246094	-175.2391204833984	-2348.28125	314.2315673828125	-337.5011901855469	-2225.857177734375	257.8702087402344	-202.3212738037109	-2287.463134765625	305.6465759277344	-189.6548461914062	-2270.026123046875	311.1128540039062	-418.3974914550781	-2368.41162109375	155.0052490234375	-217.5112915039062	-2187.911376953125	78.02127838134766	-249.7541198730469	-2437.225341796875	133.9457550048828	-273.6758117675781	-2431.12939453125	101.1517791748047	-298.78125	-2444.853271484375	114.2838287353516	-248.6938171386719	-2351.565673828125	324.1142578125	-390.5452575683594
44	0.215	-2040.165161132812	1401.739868164062	-472.2024841308594	-1986.880493164062	1389.747802734375	-171.0274658203125	-2090.950439453125	955.2767944335938	-455.2825012207031	-2061.88818359375	962.341064453125	-174.0884399414062	-2047.374145507812	907.333740234375	-430.8736877441406	-2305.825927734375	333.4306335449219	-361.7022705078125	-2033.656982421875	923.17138671875	-195.4363403320312	-2166.779296875	834.939453125	-473.8295288085938	-2178.8642578125	850.2323608398438	-140.5247650146484	-2214.7392578125	963.1454467773438	-318.4947509765625	-1991.069702148438	657.5991821289062	-486.8301696777344	-2125.98291015625	430.5841064453125	-443.3593444824219	-2053.250244140625	617.4591064453125	-459.7605895996094	-1929.806274414062	580.204833984375	-469.5007629394531	-2260.320068359375	81.63923645019531	-180.7958221435547	-2045.201171875	484.51904296875	-464.7803344726562	-1996.108154296875	538.319580078125	-448.0296020507812	-2053.802001953125	622.1611938476562	-149.5100860595703	-2150.687744140625	122.2451400756836	-385.9215087890625	-2130.446533203125	628.5905151367188	-146.1550750732422	-2056.229248046875	526.40625	-182.1880340576172	-2138.915283203125	529.7327270507812	-170.0530242919922	-1956.112670898438	505.2044372558594	-467.8840942382812	-2119.3671875	458.9488830566406	-181.0135192871094	-1997.214477539062	417.7771911621094	-455.5713806152344	-2080.67822265625	362.2635803222656	-436.5229187011719	-2158.957275390625	340.1587219238281	-183.4053649902344	-2201.1025390625	170.5015258789062	-446.8873596191406	-2229.438720703125	387.9209594726562	-176.0286560058594	-2322.09375	304.5284118652344	-337.0987243652344	-2223.17919921875	260.796875	-202.3771667480469	-2283.3837890625	309.3662414550781	-189.8570098876953	-2244.28564453125	305.2918395996094	-419.00927734375	-2365.7783203125	158.6085510253906	-217.4191436767578	-2187.786376953125	77.8091049194336	-249.5625305175781	-2434.7021484375	138.8650207519531	-272.7330017089844	-2429.146728515625	106.3974304199219	-298.3141784667969	-2443.122314453125	118.6109924316406	-247.9685974121094	-2326.934814453125	313.3638610839844	-389.9273071289062
45	0.22	-2027.97021484375	1405.52734375	-473.6378784179688	-1969.965576171875	1393.901123046875	-173.1180877685547	-2076.459228515625	959.7827758789062	-456.0701293945312	-2045.817504882812	965.1736450195312	-174.2238006591797	-2031.603759765625	910.5332641601562	-430.5479125976562	-2280.880126953125	324.3673095703125	-361.9318542480469	-2019.426391601562	925.936767578125	-195.3291168212891	-2150.29443359375	839.093017578125	-474.6964416503906	-2165.09814453125	853.9190673828125	-140.4660797119141	-2199.582763671875	966.770751953125	-318.8154602050781	-1973.400512695312	663.27783203125	-486.9784545898438	-2104.266357421875	428.5359802246094	-442.9675903320312	-2035.255737304688	622.5052490234375	-460.7345581054688	-1910.767578125	586.3343505859375	-468.1717529296875	-2259.275390625	81.9930191040039	-180.4751739501953	-2025.776123046875	486.0240478515625	-464.3406066894531	-1977.428955078125	544.0079956054688	-448.6432800292969	-2044.2548828125	624.13330078125	-151.0039672851562	-2117.473388671875	120.3682022094727	-386.7109375	-2119.8232421875	632.2855834960938	-146.8522644042969	-2048.4970703125	528.5307006835938	-183.5760040283203	-2131.4697265625	533.0001220703125	-171.1061248779297	-1936.567626953125	509.77783203125	-467.3775329589844	-2113.537841796875	461.7406311035156	-181.1904907226562	-1974.748657226562	420.999755859375	-454.9100036621094	-2056.98046875	362.8680419921875	-436.6466064453125	-2153.141357421875	343.6340942382812	-183.4019470214844	-2169.58935546875	166.89794921875	-447.2936096191406	-2224.818603515625	391.2240600585938	-176.3696136474609	-2295.941162109375	294.7112121582031	-337.30419921875	-2219.212890625	264.88671875	-202.1584014892578	-2279.49169921875	313.7401123046875	-190.0047302246094	-2219.149169921875	299.5306701660156	-419.5456237792969	-2362.774169921875	162.3283843994141	-217.0105285644531	-2187.29296875	77.5945816040039	-249.8497772216797	-2431.67626953125	143.8773345947266	-271.8104553222656	-2427.151611328125	111.8531646728516	-298.2377319335938	-2440.55859375	124.4470825195312	-247.7921752929688	-2301.49609375	303.8218383789062	-390.6085510253906
